<svg xmlns="http://www.w3.org/2000/svg" width="336.71" height="53.525" viewBox="0 0 336.71 53.525">
  <g id="Group_228" data-name="Group 228" transform="translate(-525 -2626.5)">
    <rect id="Rectangle_37" data-name="Rectangle 37" width="336.711" height="53.525" transform="translate(525 2626.5)" fill="none"/>
    <g id="Group_94" data-name="Group 94" transform="translate(525 2626.5)">
      <path id="Path_237" data-name="Path 237" d="M17.982,44.029c.458.629,1.468.953,2.994.953a13.162,13.162,0,0,0,10.221-4.4q3.985-4.4,4-16.876a33.946,33.946,0,0,0-2.155-12.757Q29.556,2.364,21.28,2.364c-1.831,0-3.013.381-3.566,1.163a5.353,5.353,0,0,0-.553,2.917V40.921a5.8,5.8,0,0,0,.82,3.108M0,45.574a10.353,10.353,0,0,0,3.795-.763A3.961,3.961,0,0,0,5.854,40.94V6.407A3.909,3.909,0,0,0,3.909,2.651,11.365,11.365,0,0,0,0,1.792V0H21.414Q34.38,0,41.188,6.9q6.178,6.293,6.2,16.895A22.586,22.586,0,0,1,41.15,39.91q-7.008,7.408-19.011,7.418H0Z" fill="rgba(0,0,0,0.05)"/>
      <path id="Path_238" data-name="Path 238" d="M252.6,45.574a9.98,9.98,0,0,0,3.966-.782c1.3-.725,1.945-2.117,1.945-4.138V6.712c0-1.964-.572-3.3-1.735-4a12.047,12.047,0,0,0-4.176-.915V0h23.7V1.773a11.081,11.081,0,0,0-4.271.82c-1.316.725-1.983,2.1-1.983,4.119v14.53h16.685V6.712c0-2.021-.629-3.375-1.888-4.081a11.233,11.233,0,0,0-4.348-.839V0h23.836V1.773a11.331,11.331,0,0,0-4.214.877c-1.259.706-1.888,2.059-1.888,4.043V40.635c0,2.059.706,3.451,2.1,4.176a9.754,9.754,0,0,0,4,.763v1.773H280.516V45.574a10.069,10.069,0,0,0,4.271-.82c1.3-.725,1.945-2.1,1.945-4.1V24.5H270.048V40.654c0,2.078.706,3.47,2.117,4.214a10.773,10.773,0,0,0,4.138.725v1.773H252.6" transform="translate(-204.433)" fill="rgba(0,0,0,0.05)"/>
      <path id="Path_239" data-name="Path 239" d="M834.552,135.236l-1.6,3.07a7.816,7.816,0,0,0-2.1-1.2,6.431,6.431,0,0,0-2.441-.591,6.261,6.261,0,0,0-5.015,2.155,8.646,8.646,0,0,0-1.85,5.778,8.1,8.1,0,0,0,1.812,5.511,6.2,6.2,0,0,0,4.92,2.059,5.044,5.044,0,0,0,3.375-1.125v-4.252H828.66v-3.261h6.827v9.668a10.021,10.021,0,0,1-3.528,1.754,14.884,14.884,0,0,1-4.29.629,9.347,9.347,0,0,1-7.36-3.051,11.626,11.626,0,0,1-2.708-8.028,11.414,11.414,0,0,1,2.956-8.123,10.4,10.4,0,0,1,7.971-3.127,9.124,9.124,0,0,1,6.026,2.136" transform="translate(-661.696 -107.72)" fill="rgba(0,0,0,0.05)"/>
      <path id="Path_240" data-name="Path 240" d="M937.9,167.737a3.963,3.963,0,0,0-2.155-.648,2.943,2.943,0,0,0-2.288,1.163,4.2,4.2,0,0,0-.973,2.841v8.981H928.8V164.286h3.661v1.449A5.221,5.221,0,0,1,936.58,164a6,6,0,0,1,2.9.572" transform="translate(-751.692 -132.728)" fill="rgba(0,0,0,0.05)"/>
      <path id="Path_241" data-name="Path 241" d="M985.8,172.142a8.316,8.316,0,0,1,2.078-5.873,8.041,8.041,0,0,1,11.1-.1,9.926,9.926,0,0,1-.038,11.956,7.194,7.194,0,0,1-5.549,2.231,7.052,7.052,0,0,1-5.587-2.25,8.624,8.624,0,0,1-2-5.968m3.833.019c0,3.47,1.258,5.206,3.756,5.225a3.211,3.211,0,0,0,2.727-1.354,6.388,6.388,0,0,0,1.011-3.852c0-3.432-1.239-5.148-3.737-5.148a3.242,3.242,0,0,0-2.746,1.354,6.139,6.139,0,0,0-1.011,3.776" transform="translate(-797.823 -132.728)" fill="rgba(0,0,0,0.05)"/>
      <path id="Path_242" data-name="Path 242" d="M1089.363,181.389v-1.335a6.7,6.7,0,0,1-2.155,1.144,7.558,7.558,0,0,1-2.517.477q-5.492,0-5.492-5.835V165.6h3.68v9.954c0,2.021.915,3.032,2.727,3.032a4.374,4.374,0,0,0,2.326-.648,3.245,3.245,0,0,0,1.43-1.506V165.6h3.68v15.789" transform="translate(-873.413 -134.023)" fill="rgba(0,0,0,0.05)"/>
      <path id="Path_243" data-name="Path 243" d="M1173.58,179.748v6.579h-3.68V164.379h3.68v1.068a4.63,4.63,0,0,1,3.394-1.354q7.551,0,7.551,8.314a8.091,8.091,0,0,1-2.078,5.968,7.688,7.688,0,0,1-5.7,2.1,7.261,7.261,0,0,1-3.165-.725m0-11.517v8.295a3.609,3.609,0,0,0,2.345.8,4.736,4.736,0,0,0,3.661-1.22,5.578,5.578,0,0,0,1.106-3.833c0-1.869-.362-3.184-1.106-3.947a4.924,4.924,0,0,0-3.661-1.144,3.313,3.313,0,0,0-2.345,1.049" transform="translate(-946.818 -132.802)" fill="rgba(0,0,0,0.05)"/>
      <path id="Path_244" data-name="Path 244" d="M834.552,135.236l-1.6,3.07a7.816,7.816,0,0,0-2.1-1.2,6.431,6.431,0,0,0-2.441-.591,6.261,6.261,0,0,0-5.015,2.155,8.646,8.646,0,0,0-1.85,5.778,8.1,8.1,0,0,0,1.812,5.511,6.2,6.2,0,0,0,4.92,2.059,5.044,5.044,0,0,0,3.375-1.125v-4.252H828.66v-3.261h6.827v9.668a10.021,10.021,0,0,1-3.528,1.754,14.884,14.884,0,0,1-4.29.629,9.347,9.347,0,0,1-7.36-3.051,11.626,11.626,0,0,1-2.708-8.028,11.414,11.414,0,0,1,2.956-8.123,10.4,10.4,0,0,1,7.971-3.127,9.124,9.124,0,0,1,6.026,2.136" transform="translate(-661.696 -107.72)" fill="#f2f2f2"/>
      <path id="Path_245" data-name="Path 245" d="M937.9,167.737a3.963,3.963,0,0,0-2.155-.648,2.943,2.943,0,0,0-2.288,1.163,4.2,4.2,0,0,0-.973,2.841v8.981H928.8V164.286h3.661v1.449A5.221,5.221,0,0,1,936.58,164a6,6,0,0,1,2.9.572" transform="translate(-751.692 -132.728)" fill="#f2f2f2"/>
      <path id="Path_246" data-name="Path 246" d="M985.8,172.142a8.316,8.316,0,0,1,2.078-5.873,8.041,8.041,0,0,1,11.1-.1,9.926,9.926,0,0,1-.038,11.956,7.194,7.194,0,0,1-5.549,2.231,7.052,7.052,0,0,1-5.587-2.25,8.624,8.624,0,0,1-2-5.968m3.833.019c0,3.47,1.258,5.206,3.756,5.225a3.211,3.211,0,0,0,2.727-1.354,6.388,6.388,0,0,0,1.011-3.852c0-3.432-1.239-5.148-3.737-5.148a3.242,3.242,0,0,0-2.746,1.354,6.139,6.139,0,0,0-1.011,3.776" transform="translate(-797.823 -132.728)" fill="#f2f2f2"/>
      <path id="Path_247" data-name="Path 247" d="M1089.363,181.389v-1.335a6.7,6.7,0,0,1-2.155,1.144,7.558,7.558,0,0,1-2.517.477q-5.492,0-5.492-5.835V165.6h3.68v9.954c0,2.021.915,3.032,2.727,3.032a4.374,4.374,0,0,0,2.326-.648,3.245,3.245,0,0,0,1.43-1.506V165.6h3.68v15.789" transform="translate(-873.413 -134.023)" fill="#f2f2f2"/>
      <path id="Path_248" data-name="Path 248" d="M1173.58,179.748v6.579h-3.68V164.379h3.68v1.068a4.63,4.63,0,0,1,3.394-1.354q7.551,0,7.551,8.314a8.091,8.091,0,0,1-2.078,5.968,7.688,7.688,0,0,1-5.7,2.1,7.261,7.261,0,0,1-3.165-.725m0-11.517v8.295a3.609,3.609,0,0,0,2.345.8,4.736,4.736,0,0,0,3.661-1.22,5.578,5.578,0,0,0,1.106-3.833c0-1.869-.362-3.184-1.106-3.947a4.924,4.924,0,0,0-3.661-1.144,3.313,3.313,0,0,0-2.345,1.049" transform="translate(-946.818 -132.802)" fill="#f2f2f2"/>
      <path id="Path_249" data-name="Path 249" d="M1266.788,213.539a1.706,1.706,0,0,1-.877.667,3.432,3.432,0,0,1-1.3.267,3,3,0,0,1-2-.629,2.239,2.239,0,0,1-.724-1.812,2.478,2.478,0,0,1,1.029-2.136,4.784,4.784,0,0,1,2.917-.782,2.548,2.548,0,0,1,.763.114c0-.934-.591-1.392-1.754-1.392a3.873,3.873,0,0,0-1.735.343l-.4-1.43a5.117,5.117,0,0,1,2.25-.458,3.68,3.68,0,0,1,2.651.82,4.3,4.3,0,0,1,.839,3.108V211.9c0,1.049.21,1.716.629,1.983a.938.938,0,0,1-.515.5,2.4,2.4,0,0,1-.629.1,1.155,1.155,0,0,1-.725-.286,1.584,1.584,0,0,1-.419-.648m-.172-2.937a4.465,4.465,0,0,0-.705-.1q-2.174,0-2.174,1.43c0,.706.4,1.068,1.22,1.068a1.466,1.466,0,0,0,1.659-1.659Z" transform="translate(-1021.263 -166.955)" fill="rgba(0,0,0,0.05)"/>
      <path id="Path_250" data-name="Path 250" d="M1307.2,238.25a1.334,1.334,0,0,1,1.468-1.182,1.356,1.356,0,0,1,1.182,1.182,1.375,1.375,0,0,1-.381.953,1.324,1.324,0,0,1-1.869,0,1.444,1.444,0,0,1-.4-.953" transform="translate(-1057.937 -191.856)" fill="rgba(0,0,0,0.05)"/>
      <path id="Path_251" data-name="Path 251" d="M1329.934,213.8l.648-1.468a2.913,2.913,0,0,0,1.869.667c.725,0,1.068-.267,1.068-.763a.994.994,0,0,0-.324-.744,4.428,4.428,0,0,0-1.258-.667c-1.354-.572-2.04-1.354-2.04-2.365a1.906,1.906,0,0,1,.782-1.6,3.242,3.242,0,0,1,2-.572,5.082,5.082,0,0,1,2.307.553l-.534,1.43a2.488,2.488,0,0,0-1.678-.515c-.648,0-.973.248-.973.763a.735.735,0,0,0,.324.553,5.9,5.9,0,0,0,1.354.648,3.492,3.492,0,0,1,1.487.992,2.2,2.2,0,0,1,.458,1.411,2.08,2.08,0,0,1-.82,1.716,3.507,3.507,0,0,1-2.212.629,4.635,4.635,0,0,1-1.259-.134,5.634,5.634,0,0,1-1.2-.534" transform="translate(-1076.305 -166.945)" fill="rgba(0,0,0,0.05)"/>
      <path id="Path_252" data-name="Path 252" d="M1366.728,236.732a1.335,1.335,0,1,1,2.651-.286.827.827,0,0,1,0,.305,1.374,1.374,0,0,1-.381.953,1.324,1.324,0,0,1-1.869,0,1.526,1.526,0,0,1-.4-.972" transform="translate(-1106.1 -190.339)" fill="rgba(0,0,0,0.05)"/>
    </g>
    <g id="Group_95" data-name="Group 95" transform="translate(628.389 2626.5)">
      <path id="Path_253" data-name="Path 253" d="M682.24,75.14V64.9H672V75.14Z" transform="translate(-647.249 -52.525)" fill="rgba(0,0,0,0.05)"/>
      <rect id="Rectangle_38" data-name="Rectangle 38" width="10.24" height="10.24" transform="translate(37.107 12.375)" fill="rgba(0,0,0,0.05)"/>
      <path id="Path_254" data-name="Path 254" d="M747.04,7.894A7.885,7.885,0,0,0,739.145,0H736.8V10.24h10.24Z" transform="translate(-699.693 0)" fill="rgba(0,0,0,0.05)"/>
      <path id="Path_255" data-name="Path 255" d="M736.8,204.84h2.345a7.885,7.885,0,0,0,7.894-7.894V194.6H736.8Z" transform="translate(-699.693 -157.493)" fill="rgba(0,0,0,0.05)"/>
      <path id="Path_256" data-name="Path 256" d="M682.24,194.6H672v10.24h10.24Z" transform="translate(-647.249 -157.493)" fill="rgba(0,0,0,0.05)"/>
      <rect id="Rectangle_39" data-name="Rectangle 39" width="10.24" height="10.24" transform="translate(37.107 24.751)" fill="rgba(0,0,0,0.05)"/>
      <path id="Path_257" data-name="Path 257" d="M682.24,129.8H672v10.24h10.24Z" transform="translate(-647.249 -105.049)" fill="rgba(0,0,0,0.05)"/>
      <path id="Path_258" data-name="Path 258" d="M682.24.1H672V10.321h10.24Z" transform="translate(-647.249 -0.081)" fill="rgba(0,0,0,0.05)"/>
      <rect id="Rectangle_40" data-name="Rectangle 40" width="10.24" height="10.24" transform="translate(12.375 0.019)" fill="rgba(0,0,0,0.05)"/>
      <rect id="Rectangle_41" data-name="Rectangle 41" width="10.24" height="10.24" transform="translate(12.375 12.375)" fill="rgba(0,0,0,0.05)"/>
      <rect id="Rectangle_42" data-name="Rectangle 42" width="10.24" height="10.24" transform="translate(0 12.375)" fill="rgba(0,0,0,0.05)"/>
      <rect id="Rectangle_43" data-name="Rectangle 43" width="10.24" height="10.24" transform="translate(12.375 24.751)" fill="rgba(0,0,0,0.05)"/>
      <rect id="Rectangle_44" data-name="Rectangle 44" width="10.24" height="10.24" transform="translate(0 24.751)" fill="rgba(0,0,0,0.05)"/>
      <rect id="Rectangle_45" data-name="Rectangle 45" width="10.24" height="10.24" transform="translate(0 37.107)" fill="rgba(0,0,0,0.05)"/>
      <rect id="Rectangle_46" data-name="Rectangle 46" width="10.24" height="10.24" transform="translate(12.375 37.107)" fill="rgba(0,0,0,0.05)"/>
      <path id="Path_259" data-name="Path 259" d="M552.44.1h-2.345A7.885,7.885,0,0,0,542.2,7.994V10.34h10.24Z" transform="translate(-542.2 -0.081)" fill="rgba(0,0,0,0.05)"/>
    </g>
  </g>
</svg>
