<svg xmlns="http://www.w3.org/2000/svg" width="35.038" height="35.039" viewBox="0 0 35.038 35.039">
  <path id="Path_1093" data-name="Path 1093" d="M1373.107,464.2h-22.775a6.132,6.132,0,0,0-6.132,6.132v28.907h28.907a6.132,6.132,0,0,0,6.132-6.132V470.327h0A6.132,6.132,0,0,0,1373.107,464.2Zm-11.867,4.443-.011.032c-.045.133-.086.253-.119.351a22.457,22.457,0,0,0-.82,3.031l-.017.1a2.217,2.217,0,0,0,.2,1.746,1.186,1.186,0,0,0,.889.447,1.219,1.219,0,0,0,.618-.146.878.878,0,0,1,.148-.059.983.983,0,0,1,1.06.422,1.553,1.553,0,0,1,.1,1.557,1.028,1.028,0,0,1-1.091.424,2.215,2.215,0,0,1-.327-.065,1.15,1.15,0,0,0-1.419.5,2.681,2.681,0,0,0-.021,2.08c.029.115.056.223.076.318.16.757.363,1.567.6,2.409-.191.059-.388.123-.592.188a12.228,12.228,0,0,1-1.925.52c-.057.008-.107.013-.151.016a3.023,3.023,0,0,0,.061-1.345,2.85,2.85,0,0,0-5.464.131,2.8,2.8,0,0,0,.109,1.028c.022.09.053.215.065.3a5.94,5.94,0,0,1-1.707-.336v-1.036h-4.675Zm-.095,24.295c-.1.33-.177.613-.233.846h-9.406v-10.1a6.151,6.151,0,0,0,1.582.285,1.491,1.491,0,0,0,1.133-.415,1.537,1.537,0,0,0,.232-1.549,1.7,1.7,0,0,1-.08-.544c.073-.6.76-.9,1.366-.927.207-.01,1.257-.007,1.45.91a1.922,1.922,0,0,1-.071.83,1.3,1.3,0,0,0,.153,1.241,1.637,1.637,0,0,0,1.487.314,13.14,13.14,0,0,0,2.173-.575c.176-.057.345-.112.51-.163a4.68,4.68,0,0,1,.183,2.064.706.706,0,0,1-.091-.016c-1.157-.283-2.765-.41-3.356,1.748a2.7,2.7,0,0,0,.48,2.5,2.5,2.5,0,0,0,2.3.761,3.624,3.624,0,0,0,.5-.109c.071-.019.169-.045.236-.056A9.3,9.3,0,0,1,1361.145,492.933Zm10.759.846h-9.6c.04-.142.083-.3.134-.471.594-2.045.98-3.668.12-4.385a1.472,1.472,0,0,0-1.446-.181,2.718,2.718,0,0,1-.328.074,1.224,1.224,0,0,1-1.11-.313,1.368,1.368,0,0,1-.2-1.264c.214-.78.456-1.113,1.743-.8a1.337,1.337,0,0,0,1.336-.3c.668-.66.5-1.966.187-3.411l.26-.075a6.447,6.447,0,0,1,1.832-.359.934.934,0,0,1-.025.174,2.94,2.94,0,0,0,.6,2.693,2.4,2.4,0,0,0,1.788.758,2.8,2.8,0,0,0,.41-.031,2.5,2.5,0,0,0,2.112-2.056,2.6,2.6,0,0,0-.076-1.172,1.4,1.4,0,0,1-.063-.364.331.331,0,0,1,.011-.085c.308-.19,1.631.209,2.318.426Zm.058-12.532c-1.179-.364-2.409-.655-3.157-.129a1.366,1.366,0,0,0-.573,1.128,2.532,2.532,0,0,0,.1.739,1.32,1.32,0,0,1,.059.6,1.159,1.159,0,0,1-.986.969,1.1,1.1,0,0,1-1.019-.312,1.627,1.627,0,0,1-.273-1.484,1.423,1.423,0,0,0-.326-1.447c-.71-.668-2.015-.288-3.166.045l-.217.063c-.233-.816-.43-1.6-.584-2.328-.023-.11-.054-.235-.088-.369a4.429,4.429,0,0,1-.165-.941,3.721,3.721,0,0,0,.485.092,2.349,2.349,0,0,0,2.39-1.073,2.869,2.869,0,0,0-.148-3.006,2.313,2.313,0,0,0-2.4-.981,1.635,1.635,0,0,0-.369.113,4.1,4.1,0,0,1,.067-.548l.019-.113a21.112,21.112,0,0,1,.766-2.815c.035-.106.075-.225.119-.354l.061-.181,4.417,3.875V469.45h3.854v6.727l5.781,5.07Z" transform="translate(-1344.2 -464.195)" fill="#004695"/>
</svg>
