<svg xmlns="http://www.w3.org/2000/svg" width="35.038" height="35.039" viewBox="0 0 35.038 35.039">
  <g id="Group_227" data-name="Group 227" transform="translate(0 0)">
    <path id="Path_1097" data-name="Path 1097" d="M1475.5,1335.7c.237.229,1.7.7,4.72.7s4.488-.474,4.724-.7a.145.145,0,0,1,.1-.04,7.821,7.821,0,1,0-9.637-.007l-.027.017a.147.147,0,0,1,.024-.005A.143.143,0,0,1,1475.5,1335.7Zm-1.864-6.2a6.594,6.594,0,1,1,9.43,5.947,23.323,23.323,0,0,1-5.663.005A6.59,6.59,0,0,1,1473.634,1329.5Z" transform="translate(-1462.724 -1312.985)" fill="#e50019"/>
    <path id="Path_1098" data-name="Path 1098" d="M1553.719,1621.045a6.282,6.282,0,0,1,.425.7,9.214,9.214,0,0,0,2.34,0,6.23,6.23,0,0,1,.425-.7,8.57,8.57,0,0,1-3.19,0Z" transform="translate(-1537.816 -1589.601)" fill="#e50019"/>
    <path id="Path_1099" data-name="Path 1099" d="M1518.587,1517.785v.382l0,.005.044.059.053.076a3.464,3.464,0,0,0,1.989.616.139.139,0,0,1,.128.136.141.141,0,0,1-.119.144,6.5,6.5,0,0,1-1,.087,2.7,2.7,0,0,1-.85-.115,1.5,1.5,0,0,1-.155.324.616.616,0,0,0-.089.18,0,0,0,0,0,0,0c.15.3,1.029.619,2.656.647a.142.142,0,0,1,.016.282,9.425,9.425,0,0,1-1.279.1,3.282,3.282,0,0,1-1.113-.152,1.284,1.284,0,0,1-.191.455.649.649,0,0,0-.091.184v0c.158.319,1.052.495,2.656.521a.142.142,0,0,1,.016.283,13.2,13.2,0,0,1-1.669.155,2.342,2.342,0,0,1-.721-.088,1.311,1.311,0,0,1-.192.461.94.94,0,0,0-.087.163c.074.057.388.224,1.611.26a.141.141,0,0,1,.02.28,6.456,6.456,0,0,1-1.083.119c-.043,0-.084,0-.124,0a2.328,2.328,0,0,0,.432.669.125.125,0,0,1,.025.022,6.011,6.011,0,0,0,6.791,0,2.116,2.116,0,0,0,.58-1.218,15.493,15.493,0,0,1-3.967.444l-.331,0c-.452,0-.9-.012-1.324-.035a.141.141,0,0,1-.134-.141.145.145,0,0,1,.138-.146c.528-.014,1.094-.051,1.683-.108,2.725-.263,4.185-.785,4.237-1,0-.005,0-.011,0-.016a.369.369,0,0,0-.08-.133,1.141,1.141,0,0,1-.147-.24,10.471,10.471,0,0,1-3.929.557h-.14c-.235,0-.418-.008-.669-.021a.142.142,0,0,1,0-.283c.249-.011.5-.03.757-.054,2.212-.214,3.891-.705,4.178-1.223a.233.233,0,0,0,.033-.1c0-.035-.014-.06-.083-.154a1.065,1.065,0,0,1-.145-.239,9.394,9.394,0,0,1-3.982.681h-.089c-.235,0-.418-.009-.669-.021a.141.141,0,0,1,0-.283c.246-.012.5-.03.757-.055,2.355-.228,3.911-.863,4.178-1.347a.231.231,0,0,0,.033-.1v-1.025a20.082,20.082,0,0,1-8.564,0Z" transform="translate(-1505.372 -1494.242)" fill="#e50019"/>
    <path id="Path_1100" data-name="Path 1100" d="M1373.4,1206.679H1350.04a5.839,5.839,0,0,0-5.84,5.838v29.2h29.2a5.84,5.84,0,0,0,5.84-5.841v-23.36A5.84,5.84,0,0,0,1373.4,1206.679Zm2.331,19.352-6.164-.117,4.854,3.8-5.9-1.774,3.648,4.966-5.555-3.529a.136.136,0,0,1,.012.053v1.894a1.148,1.148,0,0,1-.206.62.555.555,0,0,0-.089.185c.01.02.043.063.057.082a.967.967,0,0,1,.238.62,1.145,1.145,0,0,1-.206.62.59.59,0,0,0-.089.185c.011.02.044.064.057.082a.969.969,0,0,1,.238.621,1.144,1.144,0,0,1-.206.619.469.469,0,0,0-.09.2,3.588,3.588,0,0,1-1.872,2.794l-.034.023c-.055.038-.1.07-.133.1a3.9,3.9,0,0,0-.921,1.294l-.049.1a.139.139,0,0,1-.1.075l-.1.015a9.588,9.588,0,0,1-1.42.1,9.8,9.8,0,0,1-1.419-.1l-.1-.015a.14.14,0,0,1-.1-.076l-.049-.1a3.916,3.916,0,0,0-.92-1.294c-.036-.028-.087-.063-.149-.105l-.02-.013a5.981,5.981,0,0,1-1.066-.89.187.187,0,0,1-.029-.027.112.112,0,0,1-.016-.021,3.006,3.006,0,0,1-.626-1.042.9.9,0,0,0-.125-.15.858.858,0,0,1-.3-.6,1.118,1.118,0,0,1,.2-.6.473.473,0,0,0,.095-.213c0-.036-.012-.059-.084-.154a.857.857,0,0,1-.212-.538,1.114,1.114,0,0,1,.2-.6.479.479,0,0,0,.095-.214c0-.036-.013-.06-.084-.154a.856.856,0,0,1-.212-.538,1.115,1.115,0,0,1,.2-.6.474.474,0,0,0,.095-.214,1.183,1.183,0,0,0-.1-.169.848.848,0,0,1-.2-.52v-1.263a.141.141,0,0,1,.022-.077l-5.6,3.546,3.649-4.966-5.9,1.774,4.853-3.8-6.163.117,5.7-2.349-5.965-1.551,6.121-.723-5.325-3.1,6.089.954-4.292-4.425,5.6,2.562-2.938-5.419,4.708,3.98-1.368-6.01,3.458,5.1.3-6.158,1.955,5.847,1.953-5.847.305,6.158,3.458-5.1-1.367,6.01,4.706-3.98-2.938,5.419,5.606-2.562-4.291,4.425,6.089-.954-5.326,3.1,6.121.723-5.966,1.551Z" transform="translate(-1344.2 -1206.679)" fill="#e50019"/>
    <path id="Path_1101" data-name="Path 1101" d="M1637.585,1504.418a.156.156,0,0,0-.055-.011h0l0,0,.133.085A.142.142,0,0,0,1637.585,1504.418Z" transform="translate(-1615.247 -1481.797)" fill="#fff"/>
    <path id="Path_1102" data-name="Path 1102" d="M1510.055,1504.543a.139.139,0,0,0-.063.054l.095-.06A.141.141,0,0,0,1510.055,1504.543Z" transform="translate(-1497.4 -1481.917)" fill="#fff"/>
  </g>
</svg>
