<svg xmlns="http://www.w3.org/2000/svg" width="35.038" height="35.039" viewBox="0 0 35.038 35.039">
  <g id="Group_225" data-name="Group 225" transform="translate(0 0)">
    <path id="Path_1096" data-name="Path 1096" d="M1373.4,2576.043H1350.04a5.839,5.839,0,0,0-5.84,5.838v29.2h29.2a5.84,5.84,0,0,0,5.84-5.841v-23.36A5.84,5.84,0,0,0,1373.4,2576.043Zm-20.189,23.765a14.578,14.578,0,0,1,6.171-19.672q.693-.36,1.4-.642l7.076,5.683a11.5,11.5,0,0,0-.02,22.357A14.573,14.573,0,0,1,1353.209,2599.809Zm7.421-3.45a9.919,9.919,0,0,1,4.691-8.426l4.757,4.769a7.478,7.478,0,0,0-1.2,13.435A9.936,9.936,0,0,1,1360.63,2596.359Zm8.214,6.018a3.89,3.89,0,0,0,.831,2.4,5.9,5.9,0,0,1-1.034-9.349l2.648,3.3A4.014,4.014,0,0,0,1368.844,2602.377Z" transform="translate(-1344.2 -2576.043)" fill="#ffa800"/>
  </g>
</svg>
